<?xml version="1.0" encoding="utf-8"?>
<!-- Generator: Adobe Illustrator 20.1.0, SVG Export Plug-In . SVG Version: 6.00 Build 0)  -->
<svg version="1.1" id="_x32_" xmlns="http://www.w3.org/2000/svg" xmlns:xlink="http://www.w3.org/1999/xlink" x="0px" y="0px"
	 viewBox="0 0 512 512" style="enable-background:new 0 0 512 512;" xml:space="preserve">
<style type="text/css">
	.st0{fill:#FFFFFF;}
</style>
<g>
	<path class="st0" d="M256,233.1c-28.5,0-51.6,23.3-51.6,52c0,28.8,23.1,52,51.6,52s51.6-23.3,51.6-52
		C307.6,256.4,284.5,233.1,256,233.1z"/>
	<path class="st0" d="M497.4,140.3c-9-9.1-21.6-14.8-35.5-14.8h-54.2c-4.4,0-8.4-2.6-10.3-6.8l-16.2-36.3c-8-18-25.9-29.7-45.7-29.7
		H176.5c-19.8,0-37.7,11.7-45.7,29.7v0l-16.2,36.3c-1.9,4.2-6,6.8-10.3,6.8H50.1c-13.8,0-26.5,5.7-35.5,14.8
		C5.6,149.4,0,162,0,175.8v233.2c0,13.8,5.6,26.5,14.6,35.5c9,9.1,21.7,14.8,35.5,14.8h225.8h186.1c13.8,0,26.5-5.7,35.5-14.8
		c9-9.1,14.6-21.7,14.6-35.5V175.8C512,162,506.4,149.3,497.4,140.3z M473.3,409.1c0,3.3-1.3,6.1-3.4,8.3c-2.2,2.1-4.8,3.3-8,3.3
		H275.9H50.1c-3.2,0-5.9-1.2-8-3.3c-2.1-2.2-3.4-5-3.4-8.3V175.8c0-3.3,1.3-6.1,3.4-8.3c2.1-2.1,4.8-3.3,8-3.3h54.2
		c19.8,0,37.7-11.7,45.7-29.8l16.2-36.3c1.9-4.2,6-6.8,10.4-6.8h158.9c4.4,0,8.5,2.6,10.4,6.8l16.2,36.4c8,18,25.9,29.8,45.7,29.8
		h54.2c3.1,0,5.8,1.2,8,3.3c2.1,2.2,3.4,5,3.4,8.3L473.3,409.1L473.3,409.1z"/>
	<path class="st0" d="M256,170.9c-31.3,0-59.8,12.8-80.2,33.5c-20.5,20.7-33.2,49.3-33.2,80.7c0,31.5,12.7,60.1,33.2,80.7
		c20.5,20.7,48.9,33.5,80.2,33.5c31.3,0,59.8-12.8,80.2-33.5c20.5-20.6,33.2-49.3,33.2-80.7c0-31.5-12.7-60.1-33.2-80.7
		C315.8,183.8,287.3,170.9,256,170.9z M315,344.9c-15.2,15.3-36,24.7-59,24.7c-23.1,0-43.9-9.4-59-24.7
		c-15.1-15.3-24.5-36.3-24.5-59.7c0-23.4,9.4-44.4,24.5-59.7c15.2-15.3,36-24.7,59-24.7c23.1,0,43.9,9.4,59,24.7
		c15.2,15.3,24.5,36.3,24.5,59.7C339.5,308.6,330.2,329.6,315,344.9z"/>
	<rect x="392.2" y="197.7" class="st0" width="34.4" height="34.4"/>
</g>
</svg>
